<svg id="Capa_1" data-name="Capa 1" xmlns="http://www.w3.org/2000/svg" viewBox="0 0 85.19 123.61"><defs><style>.cls-1{fill:#603b17;}.cls-2{fill:#028e42;}.cls-3{fill:#057839;}.cls-4{fill:#f9b03d;}</style></defs><path class="cls-1" d="M55,103.22v16.91c0,1.92-4.26,3.48-9.51,3.48S36,122.05,36,120.13V103.25Z"/><path class="cls-2" d="M79.44,99c0,7.39-15.19,13.38-33.93,13.38s-33.94-6-33.94-13.38S45.51,47.75,45.51,47.75,79.44,91.6,79.44,99Z"/><path class="cls-3" d="M71.06,72.51c0,5.57-11.44,10.08-25.55,10.08S20,78.08,20,72.51,45.51,33.93,45.51,33.93,71.06,67,71.06,72.51Z"/><path class="cls-2" d="M64.93,47.61c0,4.23-8.69,7.66-19.42,7.66s-19.43-3.43-19.43-7.66S45.51,18.28,45.51,18.28,64.93,43.38,64.93,47.61Z"/><path class="cls-4" d="M33.4,43.07a1.16,1.16,0,0,0,0-2.31,1.16,1.16,0,0,0,0,2.31Z"/><path class="cls-4" d="M38.31,49.21a1.16,1.16,0,0,0,0-2.31,1.16,1.16,0,0,0,0,2.31Z"/><path class="cls-4" d="M41.38,39.38a1.15,1.15,0,0,0,0-2.3,1.15,1.15,0,0,0,0,2.3Z"/><path class="cls-4" d="M52.43,43.07a1.16,1.16,0,0,0,0-2.31,1.16,1.16,0,0,0,0,2.31Z"/><path class="cls-4" d="M56.73,49.82a1.15,1.15,0,0,0,0-2.3,1.15,1.15,0,0,0,0,2.3Z"/><path class="cls-4" d="M46.91,30.17a1.15,1.15,0,0,0,0-2.3,1.15,1.15,0,0,0,0,2.3Z"/><path class="cls-4" d="M46.91,49.21a1.16,1.16,0,0,0,0-2.31,1.16,1.16,0,0,0,0,2.31Z"/><path class="cls-4" d="M33.4,60.87a1.15,1.15,0,0,0,0-2.3,1.15,1.15,0,0,0,0,2.3Z"/><path class="cls-4" d="M38.31,65.78a1.15,1.15,0,0,0,0-2.3,1.15,1.15,0,0,0,0,2.3Z"/><path class="cls-4" d="M27.87,71.92a1.15,1.15,0,0,0,0-2.3,1.15,1.15,0,0,0,0,2.3Z"/><path class="cls-4" d="M35.85,74.38a1.15,1.15,0,0,0,0-2.3,1.15,1.15,0,0,0,0,2.3Z"/><path class="cls-4" d="M41.38,79.91a1.16,1.16,0,0,0,0-2.31,1.16,1.16,0,0,0,0,2.31Z"/><path class="cls-4" d="M50.59,73.77a1.16,1.16,0,0,0,0-2.31,1.16,1.16,0,0,0,0,2.31Z"/><path class="cls-4" d="M49.36,61.49a1.16,1.16,0,0,0,0-2.31,1.16,1.16,0,0,0,0,2.31Z"/><path class="cls-4" d="M60.41,67.63a1.16,1.16,0,0,0,0-2.31,1.16,1.16,0,0,0,0,2.31Z"/><path class="cls-4" d="M65.94,73.15a1.15,1.15,0,0,0,0-2.3,1.15,1.15,0,0,0,0,2.3Z"/><path class="cls-4" d="M26.64,87.89a1.15,1.15,0,0,0,0-2.3,1.15,1.15,0,0,0,0,2.3Z"/><path class="cls-4" d="M30.33,96.48a1.15,1.15,0,0,0,0-2.3,1.15,1.15,0,0,0,0,2.3Z"/><path class="cls-4" d="M18.05,103.24a1.15,1.15,0,0,0,0-2.3,1.15,1.15,0,0,0,0,2.3Z"/><path class="cls-4" d="M37.7,89.12a1.16,1.16,0,0,0,0-2.31,1.16,1.16,0,0,0,0,2.31Z"/><path class="cls-4" d="M43.22,98.94a1.15,1.15,0,0,0,0-2.3,1.15,1.15,0,0,0,0,2.3Z"/><path class="cls-4" d="M49.36,89.12a1.16,1.16,0,0,0,0-2.31,1.16,1.16,0,0,0,0,2.31Z"/><path class="cls-4" d="M58.57,96.48a1.15,1.15,0,0,0,0-2.3,1.15,1.15,0,0,0,0,2.3Z"/><path class="cls-4" d="M64.1,87.27a1.15,1.15,0,0,0,0-2.3,1.15,1.15,0,0,0,0,2.3Z"/><path class="cls-4" d="M72.08,92.8a1.15,1.15,0,0,0,0-2.3,1.15,1.15,0,0,0,0,2.3Z"/><path class="cls-4" d="M66.55,104.47a1.16,1.16,0,0,0,0-2.31,1.16,1.16,0,0,0,0,2.31Z"/><path class="cls-4" d="M54.27,107.54a1.16,1.16,0,0,0,0-2.31,1.16,1.16,0,0,0,0,2.31Z"/><path class="cls-4" d="M40.77,108.76a1.15,1.15,0,0,0,0-2.3,1.15,1.15,0,0,0,0,2.3Z"/><path class="cls-4" d="M29.1,106.31a1.15,1.15,0,0,0,0-2.3,1.15,1.15,0,0,0,0,2.3Z"/><path class="cls-4" d="M54.62,12.91C54.26,11,47.73,11,47.73,11S46,6.2,44.12,6.54c-2,.37-3.28,5-3.28,5s-5.67,1.53-6.46,2.67,4.16,4.67,4.16,4.67-1.14,5.77-.08,6.49c1.41,1,6.83-2.59,6.83-2.59s6.13,2.95,7,1.64-1.4-6.76-1.4-6.76S55,14.84,54.62,12.91Z"/></svg>