<svg xmlns="http://www.w3.org/2000/svg" viewBox="0 0 640 512"><defs/><path d="M528 336a88 88 0 100 176 88 88 0 000-176zm0 112a24 24 0 110-48 24 24 0 010 48zm80-288h-64v-40c0-14 5-28 13-39 5-6 4-14-1-20l-22-24c-6-7-18-7-24 1-19 23-30 52-30 82v40H378L322 29a48 48 0 00-45-29H144c-26 0-48 22-48 48v147c-9-7-21-7-29 1l-31 31c-9 9-9 23 0 31l5 5c-5 10-9 19-12 29h-7c-12 0-22 10-22 22v44c0 12 10 22 22 22h7c3 10 7 19 12 29l-5 5c-9 8-9 22 0 31l31 31c9 9 23 9 31 0l5-5c10 5 19 9 29 12v7c0 12 10 22 22 22h44c12 0 22-10 22-22v-7c10-3 19-7 29-12l5 5c8 9 22 9 31 0l31-31c9-9 9-23 0-31l-5-5c5-10 9-19 12-29h7c12 0 22-10 22-22v-6h81a119 119 0 01147-36l51-51c6-6 9-14 9-22v-51c0-18-14-32-32-32zM176 416a80 80 0 110-160 80 80 0 010 160zm22-256h-38V64h107l41 96H198z"/></svg>